<svg xmlns="http://www.w3.org/2000/svg" version="1.0" width="364.000000pt" height="353.000000pt" viewBox="0 0 364.000000 353.000000" preserveAspectRatio="xMidYMid meet">

<g transform="translate(0.000000,353.000000) scale(0.100000,-0.100000)" fill="#000000" stroke="none">
<path d="M89 3509 c-20 -12 -48 -40 -62 -62 l-27 -41 0 -1646 0 -1645 23 -38 c13 -21 36 -47 53 -57 28 -19 64 -20 1738 -20 l1710 0 33 22 c18 13 45 45 58 72 l25 50 0 1616 0 1616 -26 52 c-19 37 -38 59 -68 77 l-43 25 -1689 0 -1689 0 -36 -21z m2469 -796 l3 -123 -471 0 -470 0 0 -195 0 -195 288 -2 287 -3 0 -120 0 -120 -450 -5 c-428 -5 -453 -7 -507 -27 -173 -65 -303 -211 -338 -380 -18 -84 -8 -235 19 -305 74 -192 249 -324 444 -336 48 -3 77 -9 76 -16 0 -6 -24 -58 -52 -116 l-52 -105 -50 3 c-120 7 -292 76 -406 164 -279 214 -367 600 -210 925 105 215 353 390 596 421 l60 7 3 315 c1 173 4 321 7 328 3 10 131 12 612 10 l608 -3 3 -122z m-954 -832 c15 -12 16 -43 14 -300 l-3 -286 -142 -3 -143 -3 0 300 c0 277 1 300 18 305 38 11 239 1 256 -13z m550 -540 c150 -74 150 -306 0 -373 -24 -10 -44 -21 -44 -23 0 -3 36 -64 80 -136 44 -73 80 -132 80 -133 0 -1 -157 2 -177 3 -6 1 -45 59 -85 131 -98 174 -108 174 -108 1 0 -95 -3 -130 -13 -134 -7 -2 -45 -2 -85 1 l-72 5 0 344 0 345 188 -4 c173 -3 191 -5 236 -27z m491 -198 c48 -126 91 -232 95 -236 4 -4 47 97 96 225 l89 233 103 3 102 3 0 -345 0 -344 -57 -4 c-32 -1 -70 -2 -85 0 l-28 3 -1 202 0 202 -45 -130 c-25 -71 -57 -162 -71 -202 l-25 -71 -70 -4 c-39 -2 -73 1 -76 7 -4 6 -39 102 -79 215 l-72 205 0 -212 c-1 -163 -4 -213 -13 -213 -7 -1 -44 -2 -83 -2 l-70 -2 -3 347 -2 347 103 0 104 0 88 -227z"/>
<path d="M1900 1146 l0 -86 74 0 c94 0 121 18 121 79 0 64 -28 85 -120 89 l-75 4 0 -86z"/>
</g>
</svg>